<svg class="icon icon--cart" viewBox="0 0 18 24" fill="none" xmlns="http://www.w3.org/2000/svg">
<path fill-rule="evenodd" clip-rule="evenodd" d="M8.69155 0.625C7.43177 0.625 5.58235 1.23421 4.69155 2.12501C3.80075 3.0158 2.94157 4.61523 2.94157 5.87501V6.43501H0.781574L0.0115738 18.035C-0.0350324 18.7188 0.0594433 19.4049 0.289133 20.0506C0.518823 20.6964 0.878821 21.288 1.34677 21.7888C1.81472 22.2896 2.38063 22.6888 3.00936 22.9617C3.63808 23.2345 4.31619 23.3752 5.00157 23.375H12.3816C13.0661 23.3751 13.7433 23.2347 14.3713 22.9625C14.9993 22.6902 15.5647 22.2919 16.0325 21.7922C16.5003 21.2925 16.8605 20.7021 17.0909 20.0576C17.3212 19.413 17.4168 18.728 17.3716 18.045L16.6016 6.44501H14.4416V5.87501C14.4416 4.98438 13.8322 3.26563 12.6915 2.125C11.5509 0.984372 9.95133 0.625 8.69155 0.625ZM12.6915 6.43501V5.87501C12.6915 4.88044 12.2965 3.92662 11.5932 3.22336C10.8899 2.5201 9.68614 2.12501 8.69157 2.12501C7.69701 2.12501 6.74318 2.5201 6.03992 3.22336C5.33666 3.92662 4.69155 4.88044 4.69155 5.87501V6.43501H8.69157H12.6915Z" fill="currentColor"/>
</svg>
